<?xml version="1.0" standalone="no"?><!DOCTYPE svg PUBLIC "-//W3C//DTD SVG 1.1//EN" "http://www.w3.org/Graphics/SVG/1.1/DTD/svg11.dtd"><svg t="1583829567068" class="icon" viewBox="0 0 1024 1024" version="1.1" xmlns="http://www.w3.org/2000/svg" p-id="1118" xmlns:xlink="http://www.w3.org/1999/xlink" width="32" height="32"><defs><style type="text/css"></style></defs><path d="M235.21 342.74c-5.85 0-11.47-3.28-14.19-8.91-0.06-0.13-7.56-15.42-18.21-24.74-11.28-9.87-24.95-16.12-25.08-16.18-7.9-3.59-11.43-12.89-7.86-20.8 3.56-7.91 12.87-11.45 20.77-7.89 0.72 0.32 17.96 8.14 32.89 21.2 15.3 13.39 24.81 32.63 25.84 34.77 3.76 7.83 0.47 17.23-7.36 21a15.695 15.695 0 0 1-6.8 1.55z" fill="#2D2A26" p-id="1119"></path><path d="M935.09 280.59c-14.43-50.2-67.31-79.47-117.51-65.04l-55.06 15.83-15.83-55.06c-14.43-50.2-67.31-79.47-117.51-65.04-50.2 14.43-79.47 67.31-65.04 117.51l67.4 234.45 3.15-0.91 0.91 3.15 234.45-67.4c50.21-14.41 79.47-67.29 65.04-117.49z" fill="#E782A8" p-id="1120"></path><path d="M635.59 481.23c-3.49 0-6.84-1.18-9.55-3.24-0.72-0.28-1.43-0.6-2.1-0.98a15.688 15.688 0 0 1-7.5-9.42l-67.39-234.45c-16.87-58.67 17.14-120.12 75.8-136.98 28.3-8.15 58.18-4.72 84.14 9.63 25.94 14.36 44.7 37.86 52.84 66.17l11.48 39.94 39.94-11.47c58.62-16.86 120.11 17.14 136.98 75.8 16.87 58.67-17.14 120.11-75.8 136.98L639.97 480.6c-1.47 0.43-2.94 0.63-4.38 0.63z m19.75-357.91c-7.3 0-14.62 1.02-21.8 3.09-20.24 5.82-37.06 19.26-47.34 37.84-10.28 18.59-12.74 39.97-6.93 60.21l63.95 222.49L865.71 383c41.99-12.07 66.33-56.06 54.27-98.05-12.07-41.99-56.02-66.29-98.05-54.27l-55.05 15.82c-8.37 2.44-17.06-2.42-19.46-10.77l-15.83-55.05c-5.82-20.24-19.26-37.05-37.85-47.34-11.99-6.65-25.15-10.02-38.4-10.02zM202.83 506.77c-2.74 0-5.41-0.27-7.96-0.88-29.05-6.91-32.26-36.27-33.32-45.91l-8.66-78.87c-0.57-3.39-3.43-13.14-7.98-16.99-11.47-9.72-54.71-53.36-59.61-58.3-2.08-2.35-14.32-16.8-17.43-32.75-5.16-26.47 18.8-41.69 26.67-46.69 15.15-9.62 67.2-34.52 73.08-37.33 2.08-1.2 10.61-6.95 15.33-14.22 0.39-0.86 1.67-4.1 3.43-8.43 19.14-47.09 41.07-91.14 71.75-94.51h0.01c37.46-4.11 90.28 58.21 106.66 78.94 2.86 2.7 6.59 5.66 8.02 6.33 4.12 0.98 47.95 8.29 86.61 14.5 0.57 0.09 1.13 0.22 1.68 0.37 5.54 1.52 33.55 10.28 40.92 32.79 11.54 35.31-33.38 96.92-47.42 114.95 0.01 0-2.9 4.29-1.67 11.04 2.42 13.25 11.9 72.16 12.73 79.72 4.23 28.19-1.43 47.06-16.66 57.19-17.38 11.58-40.7 7.1-56.7 2.71-34.43-9.42-60.82-14.39-66.36-14.09-1.21 0.13-13.81 2.23-74.87 33.36l-1.96 0.99c-3.88 2.4-26.73 16.08-46.29 16.08z m58.74-403.6c-4.89 0.54-19.16 8.92-46.04 75.08-3.39 8.34-4.64 11.34-6.19 13.73-9.95 15.3-25.67 24.13-27.43 25.08-16.26 7.78-59.04 28.59-70.5 35.87-13.72 8.7-12.93 12.77-12.66 14.11 1.14 5.83 6.52 13.79 9.65 17.43 12.3 12.37 48.02 48.16 56.83 55.63 14.74 12.46 18.47 34.45 18.85 36.91l8.75 79.54c1.86 16.96 6.54 18.07 9.33 18.74 4.86 1 21.13-5.57 30.61-11.49 0.42-0.26 1.21-0.71 1.66-0.94l2.37-1.2c67.95-34.65 80.88-36.07 85.75-36.61 13.56-1.44 49.98 7.33 78.07 15.03 20.44 5.58 28.19 3.3 30.98 1.44 1.9-1.26 5.99-6.24 3.13-25.22l-0.32-2.34c-0.68-6.14-9.95-64.09-12.4-77.49-3.79-20.83 6.74-34.69 7.95-36.2 23.79-30.6 46.51-72.45 42.19-85.67-1.46-4.47-11.72-9.94-18.62-12.03-56.32-9.05-86.96-14.35-91.09-15.74-8.01-2.68-16.87-10.81-20.3-14.18-0.48-0.47-0.94-0.98-1.35-1.51-26.29-33.37-65.3-69.45-79.22-67.97z" fill="#2D2A26" p-id="1121"></path><path d="M209.71 952.93c-4.46 0-8.9-1.89-12.01-5.56-5.61-6.63-4.79-16.56 1.84-22.17 0.67-0.58 72.47-64.21 109.32-240.57 24.95-119.36 0.26-239.48 0.01-240.69-1.79-8.49 3.65-16.83 12.15-18.63 8.48-1.79 16.83 3.65 18.63 12.14 1.08 5.15 26.34 127.59 0.01 253.61-39.32 188.2-116.52 255.37-119.78 258.14a15.696 15.696 0 0 1-10.17 3.73zM464.69 910.17c-3.87 0-7.75-1.42-10.78-4.28-6.32-5.96-6.62-15.91-0.67-22.23 61.05-64.82 56.47-128.77 52.43-185.18-0.94-13.19-1.84-25.65-1.9-37.82-0.95-156.67 111.08-202.09 115.85-203.95 8.06-3.15 17.2 0.85 20.37 8.96 3.14 8.08-0.84 17.17-8.89 20.34-3.98 1.59-96.68 40.17-95.86 174.47 0.07 11.13 0.92 23.09 1.83 35.76 4.28 59.75 9.59 134.13-60.91 208.99a15.77 15.77 0 0 1-11.47 4.94zM801.94 352.47c-8.41 0-15.38-6.65-15.71-15.13-0.34-8.68 6.43-15.98 15.11-16.31 0.14-0.01 17.16-0.8 29.94-6.84 13.49-6.4 24.71-16.45 24.81-16.55 6.43-5.84 16.37-5.38 22.23 1.03 5.85 6.42 5.39 16.37-1.03 22.23-0.59 0.53-14.62 13.24-32.55 21.73-18.39 8.7-39.81 9.75-42.2 9.84h-0.6z" fill="#2D2A26" p-id="1122"></path></svg>